<svg xmlns="http://www.w3.org/2000/svg" viewBox="0 0 1024 1024" preserveAspectRatio="none">
<defs>
<linearGradient id="pink" x2="1" y2="1"><stop stop-color="#fff0f7"/><stop offset=".35" stop-color="#ff64b2"/><stop offset="1" stop-color="#a60865"/></linearGradient>
<linearGradient id="gold"><stop stop-color="#fff5bb"/><stop offset=".5" stop-color="#d58b20"/><stop offset="1" stop-color="#fff3bd"/></linearGradient>
<pattern id="leopard" width="85" height="82" patternUnits="userSpaceOnUse"><rect width="85" height="82" fill="#f6aa80" fill-opacity=".67"/><g fill="#1c0716" stroke="#351025" stroke-width="3"><path d="M9 8 Q32 -3 42 18 L35 34 Q12 41 9 8Z"/><path d="M61 42 Q84 35 85 59 L68 74 Q48 63 61 42Z"/><path d="M7 62 Q19 50 32 61 L27 77 9 78Z"/></g><g fill="#fc4d99"><ellipse cx="24" cy="17" rx="9" ry="7"/><ellipse cx="72" cy="57" rx="7" ry="8"/><ellipse cx="17" cy="68" rx="6" ry="5"/></g></pattern>
<symbol id="heart" viewBox="0 0 100 100"><path d="M50 87 C23 65 3 50 8 27 C13 5 40 5 50 25 C60 5 87 5 92 27 C97 50 77 65 50 87Z" fill="url(#pink)" stroke="url(#gold)" stroke-width="5"/><path d="M22 29Q27 16 40 24" fill="none" stroke="#fff" stroke-width="5" stroke-linecap="round"/></symbol>
<symbol id="bow" viewBox="0 0 140 100"><path d="M65 44Q18 -2 5 18Q-3 55 65 57M75 44Q122 -2 135 18Q143 55 75 57" fill="url(#pink)" stroke="url(#gold)" stroke-width="4"/><path d="M65 57L42 98 69 79 83 99 75 57" fill="url(#pink)" stroke="url(#gold)" stroke-width="3"/><ellipse cx="70" cy="49" rx="14" ry="13" fill="url(#gold)" stroke="#fff0d4" stroke-width="2"/></symbol>
</defs>
<!-- All ornaments are outside central play area; no additional mechanical windmills. -->
<path d="M22 116 Q-6 505 27 922" fill="none" stroke="url(#gold)" stroke-width="8" stroke-dasharray="13 7" opacity=".9"/>
<path d="M1002 112 Q1026 509 993 929" fill="none" stroke="url(#gold)" stroke-width="8" stroke-dasharray="13 7" opacity=".9"/>
<path d="M37 113Q10 520 39 900M986 116Q1010 520 985 903" fill="none" stroke="#ff52ac" stroke-width="13" opacity=".65"/>
<path d="M90 137Q55 509 91 863L150 858Q115 500 154 141Z" fill="url(#leopard)" opacity=".68"/>
<path d="M874 143Q915 497 875 860L938 860Q974 502 934 138Z" fill="url(#leopard)" opacity=".68"/>
<path d="M176 878Q514 948 845 878L860 930Q514 1008 160 930Z" fill="url(#leopard)" opacity=".68"/>
<path d="M185 148Q515 88 837 151" fill="none" stroke="url(#gold)" stroke-width="10" stroke-dasharray="20 9" opacity=".88"/>
<use href="#bow" x="12" y="155" width="160" height="114"/>
<use href="#bow" x="835" y="785" width="158" height="114"/>
<use href="#heart" x="35" y="350" width="85" height="85"/>
<use href="#heart" x="896" y="370" width="89" height="89"/>
<use href="#heart" x="60" y="720" width="90" height="90"/>
<use href="#heart" x="873" y="690" width="92" height="92"/>
<use href="#heart" x="474" y="95" width="78" height="78"/>
</svg>