<svg xmlns="http://www.w3.org/2000/svg" viewBox="0 0 1024 1024" preserveAspectRatio="none"><defs><linearGradient id="gold" x2=".8" y2="1"><stop stop-color="#fff8d4"/><stop offset=".22" stop-color="#b97818"/><stop offset=".48" stop-color="#fff2a8"/><stop offset=".7" stop-color="#a75807"/><stop offset="1" stop-color="#ffdd80"/></linearGradient><radialGradient id="gem" cx=".3" cy=".2" r=".9"><stop stop-color="#fff8ff"/><stop offset=".2" stop-color="#ff83c8"/><stop offset=".5" stop-color="#f40a86"/><stop offset=".85" stop-color="#850a4d"/><stop offset="1" stop-color="#360822"/></radialGradient><linearGradient id="print" x2="1" y2=".4"><stop stop-color="#a34750"/><stop offset=".3" stop-color="#ffb98b"/><stop offset=".7" stop-color="#e77c85"/><stop offset="1" stop-color="#5e1637"/></linearGradient><filter id="glow" x="-40%" y="-40%" width="180%" height="180%"><feGaussianBlur stdDeviation="2.3" result="b"/><feMerge><feMergeNode in="b"/><feMergeNode in="SourceGraphic"/></feMerge></filter><clipPath id="edge"><path d="M0 100H1024V1024H0Z M180 175H850V850H180Z" clip-rule="evenodd"/></clipPath></defs>
<g clip-path="url(#edge)"><path d="M15 90H1009V1010H15Z" fill="url(#print)" opacity=".77"/><path d="M909.7 651.8q23 -11.5 27.599999999999998 11.5q16.099999999999998 18.400000000000002 -6.8999999999999995 29.900000000000002q-23 9.200000000000001 -32.199999999999996 -6.8999999999999995" fill="none" stroke="#210913" stroke-width="3" stroke-linecap="round" opacity=".85"/><path d="M883.6 448.1q16 -8 19.2 8q11.2 12.8 -4.8 20.8q-16 6.4 -22.4 -4.8" fill="none" stroke="#210913" stroke-width="4" stroke-linecap="round" opacity=".85"/><path d="M492.1 917.7q22 -11 26.4 11q15.399999999999999 17.6 -6.6 28.6q-22 8.8 -30.799999999999997 -6.6" fill="none" stroke="#210913" stroke-width="6" stroke-linecap="round" opacity=".85"/><path d="M871.6 572.9q12 -6 14.399999999999999 6q8.399999999999999 9.600000000000001 -3.5999999999999996 15.600000000000001q-12 4.800000000000001 -16.799999999999997 -3.5999999999999996" fill="none" stroke="#210913" stroke-width="4" stroke-linecap="round" opacity=".85"/><path d="M352.5 876.0q18 -9 21.599999999999998 9q12.6 14.4 -5.3999999999999995 23.400000000000002q-18 7.2 -25.2 -5.3999999999999995" fill="none" stroke="#210913" stroke-width="6" stroke-linecap="round" opacity=".85"/><path d="M88.0 622.8q21 -10.5 25.2 10.5q14.7 16.8 -6.3 27.3q-21 8.4 -29.4 -6.3" fill="none" stroke="#210913" stroke-width="5" stroke-linecap="round" opacity=".85"/><path d="M574.8 867.9q11 -5.5 13.2 5.5q7.699999999999999 8.8 -3.3 14.3q-11 4.4 -15.399999999999999 -3.3" fill="none" stroke="#210913" stroke-width="3" stroke-linecap="round" opacity=".85"/><path d="M93.0 487.0q17 -8.5 20.4 8.5q11.899999999999999 13.600000000000001 -5.1 22.1q-17 6.800000000000001 -23.799999999999997 -5.1" fill="none" stroke="#210913" stroke-width="5" stroke-linecap="round" opacity=".85"/><path d="M448.9 837.2q25 -12.5 30 12.5q17.5 20 -7.5 32.5q-25 10 -35 -7.5" fill="none" stroke="#210913" stroke-width="3" stroke-linecap="round" opacity=".85"/><path d="M147.7 366.7q13 -6.5 15.6 6.5q9.1 10.4 -3.9 16.900000000000002q-13 5.2 -18.2 -3.9" fill="none" stroke="#210913" stroke-width="5" stroke-linecap="round" opacity=".85"/><path d="M422.0 135.1q16 -8 19.2 8q11.2 12.8 -4.8 20.8q-16 6.4 -22.4 -4.8" fill="none" stroke="#210913" stroke-width="4" stroke-linecap="round" opacity=".85"/><path d="M154.5 557.4q24 -12 28.799999999999997 12q16.799999999999997 19.200000000000003 -7.199999999999999 31.200000000000003q-24 9.600000000000001 -33.599999999999994 -7.199999999999999" fill="none" stroke="#210913" stroke-width="6" stroke-linecap="round" opacity=".85"/><path d="M568.7 150.3q12 -6 14.399999999999999 6q8.399999999999999 9.600000000000001 -3.5999999999999996 15.600000000000001q-12 4.800000000000001 -16.799999999999997 -3.5999999999999996" fill="none" stroke="#210913" stroke-width="4" stroke-linecap="round" opacity=".85"/><path d="M891.3 325.4q15 -7.5 18 7.5q10.5 12 -4.5 19.5q-15 6 -21 -4.5" fill="none" stroke="#210913" stroke-width="3" stroke-linecap="round" opacity=".85"/><path d="M924.6 465.0q11 -5.5 13.2 5.5q7.699999999999999 8.8 -3.3 14.3q-11 4.4 -15.399999999999999 -3.3" fill="none" stroke="#210913" stroke-width="3" stroke-linecap="round" opacity=".85"/><path d="M905.8 583.3q25 -12.5 30 12.5q17.5 20 -7.5 32.5q-25 10 -35 -7.5" fill="none" stroke="#210913" stroke-width="3" stroke-linecap="round" opacity=".85"/><path d="M704.7 882.7q10 -5 12 5q7 8 -3 13q-10 4 -14 -3" fill="none" stroke="#210913" stroke-width="6" stroke-linecap="round" opacity=".85"/><path d="M560.6 892.3q24 -12 28.799999999999997 12q16.799999999999997 19.200000000000003 -7.199999999999999 31.200000000000003q-24 9.600000000000001 -33.599999999999994 -7.199999999999999" fill="none" stroke="#210913" stroke-width="6" stroke-linecap="round" opacity=".85"/><path d="M422.7 873.0q20 -10 24 10q14 16 -6 26q-20 8 -28 -6" fill="none" stroke="#210913" stroke-width="6" stroke-linecap="round" opacity=".85"/><path d="M132.9 675.6q23 -11.5 27.599999999999998 11.5q16.099999999999998 18.400000000000002 -6.8999999999999995 29.900000000000002q-23 9.200000000000001 -32.199999999999996 -6.8999999999999995" fill="none" stroke="#210913" stroke-width="5" stroke-linecap="round" opacity=".85"/><path d="M115.0 548.1q19 -9.5 22.8 9.5q13.299999999999999 15.200000000000001 -5.7 24.7q-19 7.6000000000000005 -26.599999999999998 -5.7" fill="none" stroke="#210913" stroke-width="5" stroke-linecap="round" opacity=".85"/><path d="M146.0 428.4q15 -7.5 18 7.5q10.5 12 -4.5 19.5q-15 6 -21 -4.5" fill="none" stroke="#210913" stroke-width="5" stroke-linecap="round" opacity=".85"/><path d="M501.5 165.8q14 -7 16.8 7q9.799999999999999 11.200000000000001 -4.2 18.2q-14 5.6000000000000005 -19.599999999999998 -4.2" fill="none" stroke="#210913" stroke-width="4" stroke-linecap="round" opacity=".85"/><path d="M938.4 615.0q20 -10 24 10q14 16 -6 26q-20 8 -28 -6" fill="none" stroke="#210913" stroke-width="6" stroke-linecap="round" opacity=".85"/><path d="M886.1 407.6q13 -6.5 15.6 6.5q9.1 10.4 -3.9 16.900000000000002q-13 5.2 -18.2 -3.9" fill="none" stroke="#210913" stroke-width="3" stroke-linecap="round" opacity=".85"/></g>
<g fill="none" stroke="url(#gold)" stroke-width="9" opacity=".96"><path d="M42 128Q-7 512 42 940"/><path d="M980 125Q1030 516 980 942"/><path d="M128 138Q512 70 897 138"/><path d="M126 920Q512 1005 900 920"/></g>
<g><ellipse cx="95.0" cy="170.0" rx="15" ry="8" transform="rotate(-38 95 170)" fill="none" stroke="url(#gold)" stroke-width="5" filter="url(#glow)"/><ellipse cx="113.7" cy="172.0" rx="15" ry="8" transform="rotate(38 113.69047619047619 171.97339500137227)" fill="none" stroke="url(#gold)" stroke-width="5" filter="url(#glow)"/><ellipse cx="132.4" cy="173.9" rx="15" ry="8" transform="rotate(-38 132.38095238095238 173.93508821483763)" fill="none" stroke="url(#gold)" stroke-width="5" filter="url(#glow)"/><ellipse cx="151.1" cy="175.9" rx="15" ry="8" transform="rotate(38 151.07142857142856 175.87344329363395)" fill="none" stroke="url(#gold)" stroke-width="5" filter="url(#glow)"/><ellipse cx="169.8" cy="177.8" rx="15" ry="8" transform="rotate(-38 169.76190476190476 177.77695440731483)" fill="none" stroke="url(#gold)" stroke-width="5" filter="url(#glow)"/><ellipse cx="188.5" cy="179.6" rx="15" ry="8" transform="rotate(38 188.45238095238096 179.63431058702096)" fill="none" stroke="url(#gold)" stroke-width="5" filter="url(#glow)"/><ellipse cx="207.1" cy="181.4" rx="15" ry="8" transform="rotate(-38 207.14285714285714 181.43445898100592)" fill="none" stroke="url(#gold)" stroke-width="5" filter="url(#glow)"/><ellipse cx="225.8" cy="183.2" rx="15" ry="8" transform="rotate(38 225.83333333333331 183.16666666666666)" fill="none" stroke="url(#gold)" stroke-width="5" filter="url(#glow)"/><ellipse cx="244.5" cy="184.8" rx="15" ry="8" transform="rotate(-38 244.52380952380952 184.82058067340046)" fill="none" stroke="url(#gold)" stroke-width="5" filter="url(#glow)"/><ellipse cx="263.2" cy="186.4" rx="15" ry="8" transform="rotate(38 263.21428571428567 186.38628588061596)" fill="none" stroke="url(#gold)" stroke-width="5" filter="url(#glow)"/><ellipse cx="281.9" cy="187.9" rx="15" ry="8" transform="rotate(-38 281.9047619047619 187.85436046710953)" fill="none" stroke="url(#gold)" stroke-width="5" filter="url(#glow)"/><ellipse cx="300.6" cy="189.2" rx="15" ry="8" transform="rotate(38 300.5952380952381 189.21592860171134)" fill="none" stroke="url(#gold)" stroke-width="5" filter="url(#glow)"/><ellipse cx="319.3" cy="190.5" rx="15" ry="8" transform="rotate(-38 319.2857142857143 190.4627100805334)" fill="none" stroke="url(#gold)" stroke-width="5" filter="url(#glow)"/><ellipse cx="338.0" cy="191.6" rx="15" ry="8" transform="rotate(38 337.9761904761905 191.58706663322883)" fill="none" stroke="url(#gold)" stroke-width="5" filter="url(#glow)"/><ellipse cx="356.7" cy="192.6" rx="15" ry="8" transform="rotate(-38 356.66666666666663 192.58204463929764)" fill="none" stroke="url(#gold)" stroke-width="5" filter="url(#glow)"/><ellipse cx="375.4" cy="193.4" rx="15" ry="8" transform="rotate(38 375.3571428571429 193.44141401555345)" fill="none" stroke="url(#gold)" stroke-width="5" filter="url(#glow)"/><ellipse cx="394.0" cy="194.2" rx="15" ry="8" transform="rotate(-38 394.04761904761904 194.1597030572758)" fill="none" stroke="url(#gold)" stroke-width="5" filter="url(#glow)"/><ellipse cx="412.7" cy="194.7" rx="15" ry="8" transform="rotate(38 412.73809523809524 194.73222903820243)" fill="none" stroke="url(#gold)" stroke-width="5" filter="url(#glow)"/><ellipse cx="431.4" cy="195.2" rx="15" ry="8" transform="rotate(-38 431.4285714285714 195.1551243982339)" fill="none" stroke="url(#gold)" stroke-width="5" filter="url(#glow)"/><ellipse cx="450.1" cy="195.4" rx="15" ry="8" transform="rotate(38 450.11904761904765 195.42535837239885)" fill="none" stroke="url(#gold)" stroke-width="5" filter="url(#glow)"/><ellipse cx="468.8" cy="195.5" rx="15" ry="8" transform="rotate(-38 468.8095238095238 195.54075394012065)" fill="none" stroke="url(#gold)" stroke-width="5" filter="url(#glow)"/><ellipse cx="487.5" cy="195.5" rx="15" ry="8" transform="rotate(38 487.5 195.5)" fill="none" stroke="url(#gold)" stroke-width="5" filter="url(#glow)"/><ellipse cx="506.2" cy="195.3" rx="15" ry="8" transform="rotate(-38 506.1904761904762 195.3026587020254)" fill="none" stroke="url(#gold)" stroke-width="5" filter="url(#glow)"/><ellipse cx="524.9" cy="194.9" rx="15" ry="8" transform="rotate(38 524.8809523809524 194.94916789620837)" fill="none" stroke="url(#gold)" stroke-width="5" filter="url(#glow)"/><ellipse cx="543.6" cy="194.4" rx="15" ry="8" transform="rotate(-38 543.5714285714286 194.4408386839482)" fill="none" stroke="url(#gold)" stroke-width="5" filter="url(#glow)"/><ellipse cx="562.3" cy="193.8" rx="15" ry="8" transform="rotate(38 562.2619047619048 193.77984808582147)" fill="none" stroke="url(#gold)" stroke-width="5" filter="url(#glow)"/><ellipse cx="581.0" cy="193.0" rx="15" ry="8" transform="rotate(-38 580.952380952381 192.9692268667996)" fill="none" stroke="url(#gold)" stroke-width="5" filter="url(#glow)"/><ellipse cx="599.6" cy="192.0" rx="15" ry="8" transform="rotate(38 599.6428571428571 192.012842586982)" fill="none" stroke="url(#gold)" stroke-width="5" filter="url(#glow)"/><ellipse cx="618.3" cy="190.9" rx="15" ry="8" transform="rotate(-38 618.3333333333333 190.91537797263095)" fill="none" stroke="url(#gold)" stroke-width="5" filter="url(#glow)"/><ellipse cx="637.0" cy="189.7" rx="15" ry="8" transform="rotate(38 637.0238095238095 189.6823047284669)" fill="none" stroke="url(#gold)" stroke-width="5" filter="url(#glow)"/><ellipse cx="655.7" cy="188.3" rx="15" ry="8" transform="rotate(-38 655.7142857142858 188.31985293767625)" fill="none" stroke="url(#gold)" stroke-width="5" filter="url(#glow)"/><ellipse cx="674.4" cy="186.8" rx="15" ry="8" transform="rotate(38 674.4047619047619 186.83497622075893)" fill="none" stroke="url(#gold)" stroke-width="5" filter="url(#glow)"/><ellipse cx="693.1" cy="185.2" rx="15" ry="8" transform="rotate(-38 693.0952380952381 185.23531284806197)" fill="none" stroke="url(#gold)" stroke-width="5" filter="url(#glow)"/><ellipse cx="711.8" cy="183.5" rx="15" ry="8" transform="rotate(38 711.7857142857142 183.52914302347313)" fill="none" stroke="url(#gold)" stroke-width="5" filter="url(#glow)"/><ellipse cx="730.5" cy="181.7" rx="15" ry="8" transform="rotate(-38 730.4761904761905 181.72534257816238)" fill="none" stroke="url(#gold)" stroke-width="5" filter="url(#glow)"/><ellipse cx="749.2" cy="179.8" rx="15" ry="8" transform="rotate(38 749.1666666666667 179.83333333333334)" fill="none" stroke="url(#gold)" stroke-width="5" filter="url(#glow)"/><ellipse cx="767.9" cy="177.9" rx="15" ry="8" transform="rotate(-38 767.8571428571428 177.86303040957736)" fill="none" stroke="url(#gold)" stroke-width="5" filter="url(#glow)"/><ellipse cx="786.5" cy="175.8" rx="15" ry="8" transform="rotate(38 786.547619047619 175.82478677749717)" fill="none" stroke="url(#gold)" stroke-width="5" filter="url(#glow)"/><ellipse cx="805.2" cy="173.7" rx="15" ry="8" transform="rotate(-38 805.2380952380953 173.7293353596958)" fill="none" stroke="url(#gold)" stroke-width="5" filter="url(#glow)"/><ellipse cx="823.9" cy="171.6" rx="15" ry="8" transform="rotate(38 823.9285714285714 171.58772900791968)" fill="none" stroke="url(#gold)" stroke-width="5" filter="url(#glow)"/><ellipse cx="842.6" cy="169.4" rx="15" ry="8" transform="rotate(-38 842.6190476190476 169.41127869102814)" fill="none" stroke="url(#gold)" stroke-width="5" filter="url(#glow)"/><ellipse cx="861.3" cy="167.2" rx="15" ry="8" transform="rotate(38 861.3095238095237 167.2114902394675)" fill="none" stroke="url(#gold)" stroke-width="5" filter="url(#glow)"/><ellipse cx="880.0" cy="165.0" rx="15" ry="8" transform="rotate(-38 880 165)" fill="none" stroke="url(#gold)" stroke-width="5" filter="url(#glow)"/><ellipse cx="130.0" cy="900.0" rx="15" ry="8" transform="rotate(-38 130 900)" fill="none" stroke="url(#gold)" stroke-width="5" filter="url(#glow)"/><ellipse cx="149.5" cy="902.0" rx="15" ry="8" transform="rotate(38 149.48717948717947 901.996653667658)" fill="none" stroke="url(#gold)" stroke-width="5" filter="url(#glow)"/><ellipse cx="169.0" cy="904.0" rx="15" ry="8" transform="rotate(-38 168.97435897435898 903.9786953511967)" fill="none" stroke="url(#gold)" stroke-width="5" filter="url(#glow)"/><ellipse cx="188.5" cy="905.9" rx="15" ry="8" transform="rotate(38 188.46153846153845 905.9316078308209)" fill="none" stroke="url(#gold)" stroke-width="5" filter="url(#glow)"/><ellipse cx="207.9" cy="907.8" rx="15" ry="8" transform="rotate(-38 207.94871794871796 907.8410628008003)" fill="none" stroke="url(#gold)" stroke-width="5" filter="url(#glow)"/><ellipse cx="227.4" cy="909.7" rx="15" ry="8" transform="rotate(38 227.43589743589743 909.6930137940308)" fill="none" stroke="url(#gold)" stroke-width="5" filter="url(#glow)"/><ellipse cx="246.9" cy="911.5" rx="15" ry="8" transform="rotate(-38 246.92307692307693 911.473787278764)" fill="none" stroke="url(#gold)" stroke-width="5" filter="url(#glow)"/><ellipse cx="266.4" cy="913.2" rx="15" ry="8" transform="rotate(38 266.4102564102564 913.1701713367066)" fill="none" stroke="url(#gold)" stroke-width="5" filter="url(#glow)"/><ellipse cx="285.9" cy="914.8" rx="15" ry="8" transform="rotate(-38 285.8974358974359 914.7695013473813)" fill="none" stroke="url(#gold)" stroke-width="5" filter="url(#glow)"/><ellipse cx="305.4" cy="916.3" rx="15" ry="8" transform="rotate(38 305.38461538461536 916.25974212305)" fill="none" stroke="url(#gold)" stroke-width="5" filter="url(#glow)"/><ellipse cx="324.9" cy="917.6" rx="15" ry="8" transform="rotate(-38 324.87179487179486 917.6295659615242)" fill="none" stroke="url(#gold)" stroke-width="5" filter="url(#glow)"/><ellipse cx="344.4" cy="918.9" rx="15" ry="8" transform="rotate(38 344.35897435897436 918.8684261106615)" fill="none" stroke="url(#gold)" stroke-width="5" filter="url(#glow)"/><ellipse cx="363.8" cy="920.0" rx="15" ry="8" transform="rotate(-38 363.84615384615387 919.9666251680993)" fill="none" stroke="url(#gold)" stroke-width="5" filter="url(#glow)"/><ellipse cx="383.3" cy="920.9" rx="15" ry="8" transform="rotate(38 383.3333333333333 920.915377972631)" fill="none" stroke="url(#gold)" stroke-width="5" filter="url(#glow)"/><ellipse cx="402.8" cy="921.7" rx="15" ry="8" transform="rotate(-38 402.8205128205128 921.7068685793472)" fill="none" stroke="url(#gold)" stroke-width="5" filter="url(#glow)"/><ellipse cx="422.3" cy="922.3" rx="15" ry="8" transform="rotate(38 422.3076923076923 922.3343009490378)" fill="none" stroke="url(#gold)" stroke-width="5" filter="url(#glow)"/><ellipse cx="441.8" cy="922.8" rx="15" ry="8" transform="rotate(-38 441.79487179487177 922.7919430231143)" fill="none" stroke="url(#gold)" stroke-width="5" filter="url(#glow)"/><ellipse cx="461.3" cy="923.1" rx="15" ry="8" transform="rotate(38 461.28205128205127 923.0751638982091)" fill="none" stroke="url(#gold)" stroke-width="5" filter="url(#glow)"/><ellipse cx="480.8" cy="923.2" rx="15" ry="8" transform="rotate(-38 480.7692307692308 923.1804638593609)" fill="none" stroke="url(#gold)" stroke-width="5" filter="url(#glow)"/><ellipse cx="500.3" cy="923.1" rx="15" ry="8" transform="rotate(38 500.2564102564103 923.105497077009)" fill="none" stroke="url(#gold)" stroke-width="5" filter="url(#glow)"/><ellipse cx="519.7" cy="922.8" rx="15" ry="8" transform="rotate(-38 519.7435897435897 922.8490868205988)" fill="none" stroke="url(#gold)" stroke-width="5" filter="url(#glow)"/><ellipse cx="539.2" cy="922.4" rx="15" ry="8" transform="rotate(38 539.2307692307693 922.4112330901302)" fill="none" stroke="url(#gold)" stroke-width="5" filter="url(#glow)"/><ellipse cx="558.7" cy="921.8" rx="15" ry="8" transform="rotate(-38 558.7179487179487 921.7931126161578)" fill="none" stroke="url(#gold)" stroke-width="5" filter="url(#glow)"/><ellipse cx="578.2" cy="921.0" rx="15" ry="8" transform="rotate(38 578.2051282051282 920.9970712282425)" fill="none" stroke="url(#gold)" stroke-width="5" filter="url(#glow)"/><ellipse cx="597.7" cy="920.0" rx="15" ry="8" transform="rotate(-38 597.6923076923077 920.0266086413454)" fill="none" stroke="url(#gold)" stroke-width="5" filter="url(#glow)"/><ellipse cx="617.2" cy="918.9" rx="15" ry="8" transform="rotate(38 617.1794871794873 918.8863557588343)" fill="none" stroke="url(#gold)" stroke-width="5" filter="url(#glow)"/><ellipse cx="636.7" cy="917.6" rx="15" ry="8" transform="rotate(-38 636.6666666666666 917.5820446392977)" fill="none" stroke="url(#gold)" stroke-width="5" filter="url(#glow)"/><ellipse cx="656.2" cy="916.1" rx="15" ry="8" transform="rotate(38 656.1538461538462 916.1204713219455)" fill="none" stroke="url(#gold)" stroke-width="5" filter="url(#glow)"/><ellipse cx="675.6" cy="914.5" rx="15" ry="8" transform="rotate(-38 675.6410256410256 914.5094517516872)" fill="none" stroke="url(#gold)" stroke-width="5" filter="url(#glow)"/><ellipse cx="695.1" cy="912.8" rx="15" ry="8" transform="rotate(38 695.1282051282052 912.7577710897293)" fill="none" stroke="url(#gold)" stroke-width="5" filter="url(#glow)"/><ellipse cx="714.6" cy="910.9" rx="15" ry="8" transform="rotate(-38 714.6153846153846 910.8751267384346)" fill="none" stroke="url(#gold)" stroke-width="5" filter="url(#glow)"/><ellipse cx="734.1" cy="908.9" rx="15" ry="8" transform="rotate(38 734.1025641025641 908.8720654499455)" fill="none" stroke="url(#gold)" stroke-width="5" filter="url(#glow)"/><ellipse cx="753.6" cy="906.8" rx="15" ry="8" transform="rotate(-38 753.5897435897435 906.7599149264503)" fill="none" stroke="url(#gold)" stroke-width="5" filter="url(#glow)"/><ellipse cx="773.1" cy="904.6" rx="15" ry="8" transform="rotate(38 773.0769230769231 904.5507103556871)" fill="none" stroke="url(#gold)" stroke-width="5" filter="url(#glow)"/><ellipse cx="792.6" cy="902.3" rx="15" ry="8" transform="rotate(-38 792.5641025641025 902.2571163581333)" fill="none" stroke="url(#gold)" stroke-width="5" filter="url(#glow)"/><ellipse cx="812.1" cy="899.9" rx="15" ry="8" transform="rotate(38 812.0512820512821 899.8923448520823)" fill="none" stroke="url(#gold)" stroke-width="5" filter="url(#glow)"/><ellipse cx="831.5" cy="897.5" rx="15" ry="8" transform="rotate(-38 831.5384615384615 897.4700693692823)" fill="none" stroke="url(#gold)" stroke-width="5" filter="url(#glow)"/><ellipse cx="851.0" cy="895.0" rx="15" ry="8" transform="rotate(38 851.025641025641 895.0043363768378)" fill="none" stroke="url(#gold)" stroke-width="5" filter="url(#glow)"/><ellipse cx="870.5" cy="892.5" rx="15" ry="8" transform="rotate(-38 870.5128205128206 892.5094741804786)" fill="none" stroke="url(#gold)" stroke-width="5" filter="url(#glow)"/><ellipse cx="890.0" cy="890.0" rx="15" ry="8" transform="rotate(38 890 890)" fill="none" stroke="url(#gold)" stroke-width="5" filter="url(#glow)"/></g>
<g transform="translate(91 250) scale(0.83)" filter="url(#glow)"><path d="M-9 -7Q-77 -65 -89 -27Q-91 10 -9 9ZM9 -7Q77 -65 89 -27Q91 10 9 9Z" fill="url(#gem)" stroke="url(#gold)" stroke-width="5"/><path d="M-12 8L-33 88L-3 65L27 88L12 8" fill="url(#gem)" stroke="url(#gold)" stroke-width="5"/><ellipse rx="20" ry="18" fill="url(#gold)" stroke="#fff0d2" stroke-width="4"/><path d="M-66 -26Q-46 -39 -29 -16M31 -16Q49 -39 67 -26" stroke="white" stroke-width="5" opacity=".8" fill="none"/></g><g transform="translate(919 819) scale(0.9)" filter="url(#glow)"><path d="M-9 -7Q-77 -65 -89 -27Q-91 10 -9 9ZM9 -7Q77 -65 89 -27Q91 10 9 9Z" fill="url(#gem)" stroke="url(#gold)" stroke-width="5"/><path d="M-12 8L-33 88L-3 65L27 88L12 8" fill="url(#gem)" stroke="url(#gold)" stroke-width="5"/><ellipse rx="20" ry="18" fill="url(#gold)" stroke="#fff0d2" stroke-width="4"/><path d="M-66 -26Q-46 -39 -29 -16M31 -16Q49 -39 67 -26" stroke="white" stroke-width="5" opacity=".8" fill="none"/></g><g transform="translate(85 520) scale(0.8)" filter="url(#glow)"><path d="M0 17C-38 -13 -57 -34 -36 -51C-22 -63 -6 -50 0 -39C12 -60 33 -61 43 -45C59 -22 31 -4 0 17Z" fill="url(#gem)" stroke="url(#gold)" stroke-width="5"/><path d="M-33 -44Q-22 -52 -13 -43" fill="none" stroke="white" stroke-width="5" stroke-linecap="round"/></g><g transform="translate(926 540) scale(0.88)" filter="url(#glow)"><path d="M0 17C-38 -13 -57 -34 -36 -51C-22 -63 -6 -50 0 -39C12 -60 33 -61 43 -45C59 -22 31 -4 0 17Z" fill="url(#gem)" stroke="url(#gold)" stroke-width="5"/><path d="M-33 -44Q-22 -52 -13 -43" fill="none" stroke="white" stroke-width="5" stroke-linecap="round"/></g><g transform="translate(145 812) scale(0.65)" filter="url(#glow)"><path d="M0 17C-38 -13 -57 -34 -36 -51C-22 -63 -6 -50 0 -39C12 -60 33 -61 43 -45C59 -22 31 -4 0 17Z" fill="url(#gem)" stroke="url(#gold)" stroke-width="5"/><path d="M-33 -44Q-22 -52 -13 -43" fill="none" stroke="white" stroke-width="5" stroke-linecap="round"/></g><g transform="translate(871 310) scale(0.7)" filter="url(#glow)"><path d="M0 17C-38 -13 -57 -34 -36 -51C-22 -63 -6 -50 0 -39C12 -60 33 -61 43 -45C59 -22 31 -4 0 17Z" fill="url(#gem)" stroke="url(#gold)" stroke-width="5"/><path d="M-33 -44Q-22 -52 -13 -43" fill="none" stroke="white" stroke-width="5" stroke-linecap="round"/></g><g transform="translate(505 146) scale(0.64)" filter="url(#glow)"><path d="M0 17C-38 -13 -57 -34 -36 -51C-22 -63 -6 -50 0 -39C12 -60 33 -61 43 -45C59 -22 31 -4 0 17Z" fill="url(#gem)" stroke="url(#gold)" stroke-width="5"/><path d="M-33 -44Q-22 -52 -13 -43" fill="none" stroke="white" stroke-width="5" stroke-linecap="round"/></g>
<g fill="#fff1b8" opacity=".9"><path d="M20 108v14m-7 -7h14" stroke="#fff2cc" stroke-width="2"/><path d="M915 943v14m-7 -7h14" stroke="#fff2cc" stroke-width="2"/><path d="M114 430v14m-7 -7h14" stroke="#fff2cc" stroke-width="2"/><path d="M830 928v14m-7 -7h14" stroke="#fff2cc" stroke-width="2"/><path d="M29 415v14m-7 -7h14" stroke="#fff2cc" stroke-width="2"/><path d="M745 913v14m-7 -7h14" stroke="#fff2cc" stroke-width="2"/><path d="M924 400v14m-7 -7h14" stroke="#fff2cc" stroke-width="2"/><path d="M123 737v14m-7 -7h14" stroke="#fff2cc" stroke-width="2"/><path d="M660 898v14m-7 -7h14" stroke="#fff2cc" stroke-width="2"/><path d="M38 722v14m-7 -7h14" stroke="#fff2cc" stroke-width="2"/><path d="M575 883v14m-7 -7h14" stroke="#fff2cc" stroke-width="2"/><path d="M933 707v14m-7 -7h14" stroke="#fff2cc" stroke-width="2"/><path d="M132 194v14m-7 -7h14" stroke="#fff2cc" stroke-width="2"/><path d="M490 868v14m-7 -7h14" stroke="#fff2cc" stroke-width="2"/><path d="M47 179v14m-7 -7h14" stroke="#fff2cc" stroke-width="2"/><path d="M405 853v14m-7 -7h14" stroke="#fff2cc" stroke-width="2"/><path d="M942 164v14m-7 -7h14" stroke="#fff2cc" stroke-width="2"/><path d="M141 501v14m-7 -7h14" stroke="#fff2cc" stroke-width="2"/><path d="M320 838v14m-7 -7h14" stroke="#fff2cc" stroke-width="2"/></g>
</svg>